<?xml version="1.0" encoding="UTF-8"?>
<svg id="Calque_2" data-name="Calque 2" xmlns="http://www.w3.org/2000/svg" viewBox="0 0 1666.58 424.39">
  <defs>
    <style>
      .cls-1 {
        fill: #f4f6f8;
      }

      .cls-2 {
        fill: #e6e9e9;
      }

      .cls-3 {
        fill: #8b5cf6;
      }
    </style>
  </defs>
  <g id="Calque_1-2" data-name="Calque 1">
    <g>
      <path class="cls-3" d="M631.79,221.46l-26.68,11.23c-2.08-6.76-4.86-12.95-8.35-18.56-3.49-5.62-7.64-10.43-12.48-14.43-4.84-4-10.32-7.12-16.46-9.36-6.14-2.24-12.85-3.35-20.12-3.35-7.8,0-14.95,1.3-21.45,3.9-6.5,2.6-12.32,6.11-17.47,10.53-5.15,4.42-9.65,9.59-13.49,15.52-3.85,5.93-7.05,12.25-9.59,18.95-2.55,6.71-4.47,13.65-5.77,20.83-1.3,7.18-1.95,14.2-1.95,21.06,0,10.92,1.27,21.79,3.82,32.61,2.55,10.82,6.6,20.54,12.17,29.17,5.56,8.63,12.77,15.63,21.61,20.98,8.84,5.36,19.55,8.03,32.14,8.03,6.86,0,12.22-1.53,16.07-4.6,3.85-3.07,5.77-8.45,5.77-16.15v-68.95h61.93v111.54h-17.94l-10.92-17.63c-9.98,7.59-20.98,13.18-33,16.77-12.01,3.59-24.26,5.38-36.74,5.38-11.02,0-21.61-1.35-31.75-4.06-10.14-2.7-19.58-6.55-28.32-11.54-8.74-4.99-16.67-11.02-23.79-18.1-7.12-7.07-13.21-14.92-18.25-23.56-5.05-8.63-8.95-18.02-11.7-28.16-2.76-10.14-4.13-20.72-4.13-31.75s1.38-21.61,4.13-31.75c2.75-10.14,6.65-19.55,11.7-28.24,5.04-8.68,11.13-16.56,18.25-23.63,7.12-7.07,15.05-13.1,23.79-18.1,8.74-4.99,18.17-8.84,28.32-11.54,10.14-2.7,20.72-4.06,31.75-4.06s20.98,1.25,31.12,3.74c10.14,2.5,19.58,6.27,28.32,11.31,8.74,5.04,16.51,11.39,23.32,19.03,6.81,7.64,12.19,16.61,16.15,26.91Z"/>
      <path class="cls-3" d="M723.06,390.42h-52.73V127.24h20.28l32.45,54.76v208.42Z"/>
      <path class="cls-3" d="M940.37,269.36c0,7.38-1.2,13.96-3.59,19.73-2.39,5.77-5.64,10.84-9.75,15.21-4.11,4.37-8.87,8.06-14.27,11.08-5.41,3.02-11.18,5.49-17.32,7.41-6.14,1.92-12.46,3.3-18.95,4.13-6.5.83-12.82,1.25-18.95,1.25-7.8,0-15.5-.55-23.09-1.64-7.59-1.09-15.08-2.83-22.46-5.23,1.14,6.86,2.96,13.39,5.46,19.58,2.5,6.19,5.82,11.6,9.98,16.22,4.16,4.63,9.28,8.29,15.37,11,6.08,2.7,13.28,4.06,21.61,4.06,5.51,0,10.76-.83,15.76-2.5,4.99-1.66,9.57-4,13.73-7.02,4.16-3.02,7.82-6.6,11-10.76,3.17-4.16,5.75-8.79,7.72-13.88l22.78,8.42c-3.43,8.22-8.14,15.31-14.12,21.29-5.98,5.98-12.74,10.92-20.28,14.82-7.54,3.9-15.55,6.79-24.02,8.66-8.48,1.87-16.87,2.81-25.2,2.81-13.73,0-26.42-2.31-38.07-6.94-11.65-4.63-21.68-11.1-30.11-19.42-8.42-8.32-15.03-18.25-19.81-29.8-4.78-11.54-7.18-24.18-7.18-37.91s2.39-26.37,7.18-37.91c4.78-11.54,11.39-21.48,19.81-29.8,8.42-8.32,18.46-14.79,30.11-19.42,11.65-4.63,24.34-6.94,38.07-6.94,6.65,0,13.47.47,20.44,1.4,6.97.94,13.73,2.42,20.28,4.45s12.74,4.65,18.56,7.88c5.82,3.22,10.89,7.2,15.21,11.93,4.31,4.73,7.75,10.22,10.3,16.46,2.55,6.24,3.82,13.36,3.82,21.37ZM810.42,304.93c6.45,1.46,12.89,2.6,19.34,3.43,6.45.83,12.95,1.25,19.5,1.25s13.23-.65,19.11-1.95c5.87-1.3,10.97-3.48,15.29-6.55,4.31-3.07,7.72-7.15,10.22-12.25,2.5-5.1,3.74-11.44,3.74-19.03,0-6.14-.83-11.75-2.5-16.85-1.66-5.1-4.13-9.46-7.41-13.1-3.28-3.64-7.31-6.47-12.09-8.5-4.78-2.03-10.35-3.04-16.69-3.04-5.93,0-11.26,1.09-15.99,3.28-4.73,2.18-8.89,5.12-12.48,8.81-3.59,3.69-6.66,7.98-9.2,12.87-2.55,4.89-4.66,9.98-6.32,15.29-1.66,5.3-2.86,10.66-3.59,16.07-.73,5.41-1.09,10.5-1.09,15.29v2.5c0,.83.05,1.66.16,2.5Z"/>
      <path class="cls-3" d="M1146.61,269.36c0,7.38-1.2,13.96-3.59,19.73-2.39,5.77-5.64,10.84-9.75,15.21-4.11,4.37-8.87,8.06-14.27,11.08-5.41,3.02-11.18,5.49-17.32,7.41-6.14,1.92-12.46,3.3-18.95,4.13-6.5.83-12.82,1.25-18.95,1.25-7.8,0-15.5-.55-23.09-1.64-7.59-1.09-15.08-2.83-22.46-5.23,1.14,6.86,2.96,13.39,5.46,19.58,2.5,6.19,5.82,11.6,9.98,16.22,4.16,4.63,9.28,8.29,15.37,11,6.08,2.7,13.28,4.06,21.61,4.06,5.51,0,10.76-.83,15.76-2.5,4.99-1.66,9.57-4,13.73-7.02,4.16-3.02,7.82-6.6,11-10.76,3.17-4.16,5.75-8.79,7.72-13.88l22.78,8.42c-3.43,8.22-8.14,15.31-14.12,21.29-5.98,5.98-12.74,10.92-20.28,14.82-7.54,3.9-15.55,6.79-24.02,8.66-8.48,1.87-16.87,2.81-25.2,2.81-13.73,0-26.42-2.31-38.07-6.94-11.65-4.63-21.68-11.1-30.11-19.42-8.42-8.32-15.03-18.25-19.81-29.8-4.78-11.54-7.18-24.18-7.18-37.91s2.39-26.37,7.18-37.91c4.78-11.54,11.39-21.48,19.81-29.8s18.46-14.79,30.11-19.42c11.65-4.63,24.34-6.94,38.07-6.94,6.65,0,13.47.47,20.44,1.4,6.97.94,13.73,2.42,20.28,4.45,6.55,2.03,12.74,4.65,18.56,7.88,5.82,3.22,10.89,7.2,15.21,11.93,4.31,4.73,7.75,10.22,10.3,16.46,2.55,6.24,3.82,13.36,3.82,21.37ZM1016.66,304.93c6.45,1.46,12.89,2.6,19.34,3.43,6.45.83,12.95,1.25,19.5,1.25s13.23-.65,19.11-1.95c5.87-1.3,10.97-3.48,15.29-6.55,4.31-3.07,7.72-7.15,10.22-12.25,2.5-5.1,3.74-11.44,3.74-19.03,0-6.14-.83-11.75-2.5-16.85-1.66-5.1-4.13-9.46-7.41-13.1-3.28-3.64-7.31-6.47-12.09-8.5-4.78-2.03-10.35-3.04-16.69-3.04-5.93,0-11.26,1.09-15.99,3.28-4.73,2.18-8.89,5.12-12.48,8.81-3.59,3.69-6.66,7.98-9.2,12.87-2.55,4.89-4.66,9.98-6.32,15.29-1.66,5.3-2.86,10.66-3.59,16.07-.73,5.41-1.09,10.5-1.09,15.29v2.5c0,.83.05,1.66.16,2.5Z"/>
      <path class="cls-3" d="M1232.26,390.42h-52.73v-246.49h52.73v161.78c8.63-6.24,17.13-13.1,25.51-20.59,8.37-7.49,16.35-15.37,23.95-23.63,7.59-8.27,14.64-16.72,21.14-25.35,6.5-8.63,12.19-17.26,17.08-25.9h35.88c-7.28,12.27-15.91,24.52-25.9,36.74-9.98,12.22-20.85,23.89-32.61,35.02l59.13,108.42h-58.19l-41.97-75.19c-7.8,5.3-15.81,10.19-24.02,14.66v60.53Z"/>
      <path class="cls-3" d="M1559.09,390.42h-52.73v-21.53c-6.24,8.53-13.75,14.85-22.54,18.95-8.79,4.11-18.43,6.16-28.94,6.16-13.73,0-26-2.44-36.82-7.33-10.82-4.89-19.97-11.57-27.46-20.05-7.49-8.48-13.21-18.43-17.16-29.88-3.95-11.44-5.93-23.71-5.93-36.82s1.97-25.38,5.93-36.82c3.95-11.44,9.67-21.4,17.16-29.88,7.49-8.48,16.64-15.16,27.46-20.05,10.82-4.89,23.09-7.33,36.82-7.33,6.97,0,13.6,1.04,19.89,3.12,6.29,2.08,12.06,5.02,17.32,8.81,5.25,3.8,9.88,8.37,13.88,13.73,4,5.36,7.15,11.31,9.44,17.86l23.4-39.16h20.28v180.19ZM1506.05,299.93c0-4.68-.23-9.62-.7-14.82s-1.27-10.35-2.42-15.44c-1.15-5.1-2.73-9.96-4.76-14.59-2.03-4.63-4.63-8.74-7.8-12.32-3.17-3.59-7-6.42-11.47-8.5-4.47-2.08-9.67-3.12-15.6-3.12s-11.08,1.07-15.44,3.2c-4.37,2.13-8.11,4.99-11.23,8.58s-5.69,7.72-7.72,12.4c-2.03,4.68-3.61,9.57-4.76,14.66-1.15,5.1-1.95,10.22-2.42,15.37-.47,5.15-.7,10.01-.7,14.59s.23,9.46.7,14.66c.47,5.2,1.27,10.35,2.42,15.44,1.14,5.1,2.73,9.98,4.76,14.66s4.6,8.81,7.72,12.4c3.12,3.59,6.86,6.45,11.23,8.58s9.52,3.2,15.44,3.2c5.41,0,10.22-1.12,14.43-3.35,4.21-2.24,7.9-5.23,11.08-8.97,3.17-3.74,5.85-8.01,8.03-12.79s3.95-9.72,5.3-14.82c1.35-5.1,2.34-10.17,2.96-15.21s.94-9.65.94-13.81Z"/>
      <path class="cls-3" d="M1666.58,150.17l-17.47,178.63h-31.98l-17.32-178.63h66.77ZM1661.59,367.02c0,3.95-.76,7.67-2.26,11.15-1.51,3.48-3.54,6.5-6.08,9.05-2.55,2.55-5.56,4.58-9.05,6.08-3.49,1.51-7.15,2.26-11,2.26s-7.67-.75-11.15-2.26c-3.49-1.51-6.5-3.54-9.05-6.08-2.55-2.55-4.58-5.56-6.08-9.05-1.51-3.48-2.26-7.2-2.26-11.15s.75-7.51,2.26-11c1.51-3.48,3.53-6.5,6.08-9.05,2.55-2.55,5.56-4.58,9.05-6.08,3.48-1.51,7.2-2.26,11.15-2.26s7.51.75,11,2.26c3.48,1.51,6.5,3.54,9.05,6.08,2.55,2.55,4.58,5.56,6.08,9.05,1.51,3.48,2.26,7.15,2.26,11Z"/>
    </g>
  </g>
  <g id="Calque_2-2" data-name="Calque 2">
    <g>
      <path class="cls-3" d="M213.08,105.18c10.12,9.4,42.79,9.6,56.45,16.07,19.97,9.45-10.68,29.24-19.74,35.34.2,6.82,3.47,13.33,3.45,20.23-.04,17.96-14.59,32.69-27.52,43.15l18.32,14.27c2.38,2.36,7.4,10.77,9.1,11.8,2.91,1.77,21.55.76,25.44-.68,7.28-2.71,10.7-14.09,21.49-11.83l5.9-57.45c2.01-6.25,12.64-8.12,14.89-1.66.91,2.61-.75,19.02-1.09,23.29-1.33,16.55-3.66,33.21-5.16,49.77l.53,1.81c12.34,5.55,9.77,16.65,6.34,27.19-2.59,7.95-4.7,9.47-12.21,12.89l-12.4,129.71c-4.37,6.14-12.9,4.28-13.75-3.16l11.67-127.98-1.13-1.39c-7.18-4.85-33.14,6.66-43.15,3.27l27.55,102.54c-.91,10.49-25.98,11.21-34.09,11.1,3.46,3.85,8.56,16.03,2.62,18.93-2.52,1.23-44.72,1.22-48.42.06-8.16-2.55-7.26-13.79-5.15-20.3-9.3-2.61-37.67,1.12-44.97,6.37-2.12,1.53,2.11,13.06-10.54,14.55-17.06,2-56.96,1.51-74.49-.05-43.71-3.9-77.87-45.34-56.49-87.78,1.68-3.34,10.75-18.15,15.37-14.8,2.49,7.79-.89,16.09-.05,24.87.91,9.48,6.55,23.51,17.01,24.91,25.8-48.79,24.94-117.08,78.35-147.05l-.83-2.7c-14-7.68-21.97-20.48-25.22-35.89-9.28-.64-47.46-4.65-39.11-20.63,5.28-10.11,33.85-21.44,42.94-31.54,9.97-11.08,15.96-65.4,14.05-80.64-.56-4.42-2.54-9.89-4.22-14.04-5.06,4.08-11.05,8.62-15.73,13.01-5.27,4.94-7.61,13.42-16.29,11.8-3.87-3.83,9.15-29.55,12.01-34.37C89.63,20.09,103.6-1.28,113.63.06c6.75.9,34.75,21.29,41.37,26.69,25.87,21.08,38.42,52.05,58.08,78.43ZM109.73,145.16c-6.98,17.37-13.82,34.68-4,52.31,10.89,19.55,56.92,38.55,78.49,34.56,9.89-1.83,39.41-21.29,46.73-29.05,14.85-15.73,16.19-28.69,8.04-48.6-2.93-7.16-13.22-22.78-20.77-24.96-4.71-1.36-26.21-.67-32.44-.33-25.92,1.41-51.7,7.55-76.06,16.06ZM205.44,415.2c10.16,1.34,22.86-.99,33.32,0,1.35-8.53-7.99-9.57-14.38-10.46,1.32-8.39,7.73-18.43,7.95-26.76.27-10.33-7.48-19.67-13.15-27.39,13.27-26.15,9.9-55.08,5.21-82.98,13.95,8.4,22.63,14.65,39.83,13.05,8.9-.83,17.81-6.12,26.79-3.91.39-7.4-1.32-15.26,1.97-22.21,2.56-3.21,10.44,2.91,13.84-1.82,6.3-7.7-9.96-14.62-17.97-6.86-2.18,2.11-3.3,7.49-6.57,8.45-4.83,1.42-22.08,2.22-27.23,1.58-11.1-1.38-23.7-12.9-35.3-14.48l-23.34,9.08c-2.1,14.71-13.3,22.22-27.85,17.4-8.97-2.97-8.69-14.21-12.17-16.56-1.9-1.28-22.59-6.05-24.82-5.38-6.78,2.05-24.47,17.12-29.38,22.95-19.03,22.6-9.89,32.75-13.77,56.77-1.06,6.59-7.06,9.29-5.15,19.65,2.23,12.1,8.95-11.43,13.05-7.18-1.73,5.28,4.58,23.05,10.34,14.87,2.97-4.22-2.12-12.02,1.54-17.36,3.67-2.45,11.07,8.03,15,2.56,3.36-4.67-8.25-11.89-9.99-16.3-2.96-7.52.09-25.81,3.75-33.02.85-1.67,10.1-14.29,12.02-12.14-1.75,10.37-11.02,36.04-6.35,44.89,2.67,5.08,10.18,8.04,8.75,16.81-1.58,9.64-9.21,7.29-11.29,9.06-1.08.91-11.01,23.87-11.42,25.81-2.32,11.01,2.46,18.95,4.57,29.32-5.73,3.96-14.83,3.49-15.6,12.55,5.01,1.27,10.67-1.58,15.07-1.45,2.45.07,1.22,2.54,3.78,2.86,29.3,3.72,18.9-7.43,21.73-25.49,2.54-16.22,18.95-22.08,33.31-21.69,31.12.84,33.53,15.71,29.25,43.66.16.57,4.01,2.03,4.65,2.12ZM173.03,243.04c-6.33,1.94-6.88,14.79,1.37,16.49,15.42,3.19,14.36-21.32-1.37-16.49ZM315.66,258.64c-19.03-3.34-25.64,12.05-1.99,8.76l2.94-3.68-.95-5.08ZM299.73,273.04l-2.23,3.05c.03,6.26,15.49,6.44,16.87,1.1l-2-4.16h-12.65ZM100.25,366.88l-22.21,13.71c-30.83,12.85-64.6-3.46-64.04-38.53-8.41,9.11-5.44,25.15-1.32,35.95,10.04,26.32,38.46,35.22,64.76,33.33,12.12-.87,11.13-1.15,18.24-9.19,1.13-1.27,3.69-1.86,4.67-3.17,2.84-3.78-1.47-13.73-1.48-19.69-.01-4.44,1.19-8.1,1.38-12.4Z"/>
      <path class="cls-3" d="M306.05,131.76c2.22-.69,7.7-15.71,10-18.74,1.12-1.47,1.37-2.67,3.7-2.16l8.39,21.02,20.37,4.47-15.43,14.6,1.71,23.93-19.82-12.87c-3.34,1.22-18.82,11.32-21.32,8.94l5.24-21.48c-.96-5.72-13.68-10.71-13.08-17.7h20.25Z"/>
      <path class="cls-1" d="M205.44,415.2c-.64-.08-4.49-1.54-4.65-2.12,4.28-27.95,1.86-42.82-29.25-43.66-14.36-.39-30.77,5.47-33.31,21.69-2.83,18.06,7.58,29.22-21.73,25.49-2.56-.32-1.33-2.79-3.78-2.86-4.4-.13-10.06,2.72-15.07,1.45.77-9.06,9.87-8.59,15.6-12.55-2.11-10.37-6.89-18.3-4.57-29.32.41-1.94,10.35-24.89,11.42-25.81,2.08-1.77,9.72.57,11.29-9.06,1.44-8.77-6.08-11.73-8.75-16.81-4.66-8.86,4.61-34.53,6.35-44.89-1.92-2.16-11.17,10.46-12.02,12.14-3.66,7.21-6.72,25.49-3.75,33.02,1.73,4.4,13.34,11.63,9.99,16.3-3.93,5.47-11.33-5.01-15-2.56-3.66,5.35,1.44,13.14-1.54,17.36-5.76,8.18-12.07-9.6-10.34-14.87-4.1-4.25-10.82,19.28-13.05,7.18-1.91-10.37,4.09-13.07,5.15-19.65,3.88-24.02-5.26-34.17,13.77-56.77,4.91-5.83,22.61-20.91,29.38-22.95,2.23-.67,22.92,4.1,24.82,5.38,3.48,2.35,3.2,13.59,12.17,16.56,14.56,4.82,25.75-2.69,27.85-17.4l23.34-9.08c11.6,1.58,24.19,13.1,35.3,14.48,5.15.64,22.4-.16,27.23-1.58,3.28-.96,4.4-6.34,6.57-8.45,8.01-7.76,24.27-.84,17.97,6.86-3.39,4.73-11.27-1.38-13.84,1.82-3.29,6.95-1.58,14.81-1.97,22.21-8.98-2.21-17.89,3.08-26.79,3.91-17.19,1.6-25.88-4.65-39.83-13.05,4.69,27.9,8.06,56.82-5.21,82.98,5.67,7.72,13.42,17.07,13.15,27.39-.22,8.34-6.63,18.37-7.95,26.76,6.39.89,15.73,1.93,14.38,10.46-10.46-.99-23.16,1.34-33.32,0Z"/>
      <path class="cls-1" d="M109.73,145.16c24.36-8.52,50.14-14.65,76.06-16.06,6.23-.34,27.73-1.02,32.44.33,7.54,2.17,17.84,17.79,20.77,24.96,8.15,19.91,6.81,32.87-8.04,48.6-7.32,7.75-36.84,27.22-46.73,29.05-21.57,3.99-67.6-15.01-78.49-34.56-9.82-17.64-2.98-34.94,4-52.31ZM213.57,138.55c-17.15,3.81-11.38,39.27,8.58,34.73,16.17-3.67,10.61-38.99-8.58-34.73ZM120.31,175.72c17,16.25,35.3-21.3,15.58-30.59-18.09-8.52-27.52,19.18-15.58,30.59ZM196.46,180.17c-3.31.54-5.09,7.97-1.43,9.05,6.65,1.97,7.33-10.01,1.43-9.05ZM156.78,190.2c4.03,3.92,10.07.29,6.88-4.91-3.44-5.61-11.71.22-6.88,4.91ZM230.91,185.32c-2.62-2.28-13.51,7.19-16.58,8.88-26.59,14.66-53.82,12.92-81.39,2.19-2.85-1.11-14.82-10.13-13.08-2.6,1.3,5.64,17.2,11.98,22.84,13.75,22.74,7.15,50.07,7.24,71.25-4.57,6.9-3.85,14.48-9.84,16.96-17.65Z"/>
      <path class="cls-1" d="M100.25,366.88c-.19,4.29-1.39,7.96-1.38,12.4.02,5.96,4.32,15.91,1.48,19.69-.98,1.3-3.54,1.9-4.67,3.17-7.11,8.04-6.12,8.32-18.24,9.19-26.3,1.89-54.72-7.01-64.76-33.33-4.12-10.8-7.09-26.84,1.32-35.95-.56,35.07,33.21,51.38,64.04,38.53l22.21-13.71Z"/>
      <path class="cls-2" d="M173.03,243.04c15.73-4.83,16.79,19.69,1.37,16.49-8.25-1.71-7.7-14.55-1.37-16.49Z"/>
      <path class="cls-2" d="M315.66,258.64l.95,5.08-2.94,3.68c-23.65,3.29-17.05-12.09,1.99-8.76Z"/>
      <path class="cls-2" d="M299.73,273.04h12.65l2,4.16c-1.38,5.34-16.84,5.16-16.87-1.1l2.23-3.05Z"/>
      <path class="cls-3" d="M234.18,188.59c-2.48,7.81-10.06,13.8-16.96,17.65-21.19,11.81-48.51,11.72-71.25,4.57-5.64-1.77-21.53-8.11-22.84-13.75-1.74-7.52,10.23,1.49,13.08,2.6,27.57,10.74,54.8,12.47,81.39-2.19,3.07-1.69,13.96-11.17,16.58-8.88Z"/>
      <path class="cls-3" d="M120.96,175.06c-11.94-11.41-2.51-39.12,15.58-30.59,19.72,9.29,1.42,46.84-15.58,30.59ZM128.37,150.7c-2.25,4.91-4.43,13.7-.64,18.25,6.43,7.73,11.65-18.02.64-18.25Z"/>
      <path class="cls-3" d="M213.57,138.55c19.19-4.26,24.74,31.06,8.58,34.73-19.96,4.54-25.73-30.93-8.58-34.73ZM215.26,165.72l3.98-.57c8.41-23.86-13.59-25.56-3.98.57Z"/>
      <path class="cls-3" d="M156.78,190.2c-4.83-4.69,3.44-10.52,6.88-4.91,3.19,5.2-2.85,8.83-6.88,4.91Z"/>
      <path class="cls-3" d="M196.46,180.17c5.9-.97,5.22,11.02-1.43,9.05-3.66-1.08-1.89-8.51,1.43-9.05Z"/>
      <path class="cls-2" d="M128.12,150.78c12.67.24,6.66,26.74-.74,18.79-4.36-4.69-1.85-13.74.74-18.79Z"/>
      <path class="cls-2" d="M215.26,165.72c-9.61-26.13,12.39-24.44,3.98-.57l-3.98.57Z"/>
    </g>
  </g>
</svg>